<svg width="194" height="80" viewBox="0 0 194 80" fill="none" xmlns="http://www.w3.org/2000/svg">
<path d="M182 0.921124V52.0789H176.417V0.921124H182Z" fill="#3D5C3A"/>
<path d="M138.67 43.4345C139.441 44.6627 140.44 45.7255 141.665 46.623C142.936 47.4733 144.57 47.8984 146.568 47.8984C149.7 47.8984 151.992 46.9064 153.444 44.9225C154.942 42.9385 155.691 39.8445 155.691 35.6404V0.921124H161.274V36.9158C161.274 41.8757 160.072 45.7963 157.666 48.6778C155.305 51.5593 151.856 53 147.317 53C144.185 53 141.575 52.4568 139.487 51.3703C137.444 50.2839 135.833 48.7014 134.652 46.623L138.67 43.4345Z" fill="#3D5C3A"/>
<path d="M97.2493 52.0789L80.7042 8.43182H80.6361L80.8403 14.9505V52.0789H75.2572V0.921124H83.2915L97.6578 38.8997L99.8366 45.8436L102.015 38.8997L116.382 0.921124H124.416V52.0789H118.833V14.9505L119.037 8.43182H118.969L102.424 52.0789H97.2493Z" fill="#3D5C3A"/>
<path d="M59.6163 0.921124V52.0789H54.0332V0.921124H59.6163Z" fill="#3D5C3A"/>
<path d="M35.2093 11.4786C34.1653 9.44741 32.5766 7.88859 30.4432 6.80214C28.3552 5.66845 26.1083 5.1016 23.7026 5.1016C20.5706 5.1016 17.9833 5.78654 15.9407 7.15642C13.8981 8.47905 12.8768 10.463 12.8768 13.1083C12.8768 14.4309 13.081 15.6119 13.4896 16.6511C13.8981 17.643 14.5563 18.5642 15.4641 19.4144C16.3719 20.2175 17.5521 20.9496 19.0046 21.611C20.4571 22.225 22.2047 22.8155 24.2473 23.3823C26.653 24.0437 28.8545 24.8231 30.8517 25.7206C32.8943 26.5709 34.6419 27.6101 36.0944 28.8382C37.547 30.0192 38.6817 31.4363 39.4988 33.0896C40.3158 34.6956 40.7243 36.5615 40.7243 38.6872C40.7243 41.1907 40.2704 43.34 39.3626 45.135C38.4548 46.93 37.2065 48.418 35.6178 49.5989C34.0291 50.7799 32.1227 51.6301 29.8985 52.1497C27.6743 52.7166 25.2459 53 22.6132 53C20.843 53 19.1181 52.7638 17.4386 52.2914C15.8045 51.8663 14.2385 51.2286 12.7406 50.3783C11.2881 49.5281 9.97174 48.4889 8.79156 47.2607C7.65678 45.9853 6.72626 44.5446 6 42.9385L10.6299 40.246C11.0838 41.2852 11.7193 42.2772 12.5363 43.2219C13.3534 44.1194 14.3066 44.9225 15.396 45.631C16.4854 46.3396 17.6656 46.9064 18.9365 47.3315C20.2075 47.7094 21.5465 47.8984 22.9537 47.8984C24.7239 47.8984 26.3353 47.7331 27.7878 47.4024C29.2857 47.0717 30.5567 46.5521 31.6007 45.8436C32.6901 45.135 33.5298 44.2375 34.1199 43.1511C34.7554 42.0646 35.0731 40.7656 35.0731 39.254C35.0731 37.6952 34.8008 36.3725 34.2561 35.2861C33.7114 34.1524 32.849 33.1604 31.6688 32.3102C30.4886 31.4127 28.9907 30.6096 27.175 29.9011C25.3594 29.1925 23.1579 28.484 20.5706 27.7754C16.4854 26.6417 13.2399 24.9412 10.8342 22.6738C8.42843 20.4064 7.22557 17.4305 7.22557 13.746C7.22557 11.5731 7.61139 9.63636 8.38304 7.93583C9.20009 6.23529 10.3349 4.79456 11.7874 3.61364C13.2853 2.43271 15.0783 1.5352 17.1663 0.921119C19.2543 0.30704 21.5692 0 24.1111 0C27.6063 0 30.7156 0.80303 33.439 2.40909C36.1625 3.96791 38.3186 6.09358 39.9073 8.7861L35.2093 11.4786Z" fill="#3D5C3A"/>
<path d="M162.194 76.6338V77.6429H147.278V76.6338H153.948V73.2496H155.359V76.6338H162.194ZM155.396 67.6453C155.396 69.9584 158.621 71.9766 161.461 72.3957L160.82 73.4048C158.337 72.9779 155.716 71.5497 154.663 69.5548C153.591 71.5419 150.989 72.9779 148.506 73.4048L147.865 72.3957C150.705 71.9766 153.893 69.9584 153.893 67.6453V66.5897H155.396V67.6453Z" fill="#FAF8F3"/>
<path d="M143.272 66.5897V67.8006C143.272 69.1124 143.272 70.5328 142.814 72.5199H145.233V73.529H138.508V79.5213H137.061V73.529H130.391V72.5199H141.348C141.843 70.5328 141.843 69.0813 141.843 67.8006V67.5988H132.26V66.5897H143.272Z" fill="#FAF8F3"/>
<path d="M127.69 65.7948V75.9942H126.242V72.2684H122.028C121.276 73.0835 120.067 73.5725 118.674 73.5725C116.237 73.5725 114.441 72.1442 114.441 70.1261C114.441 68.1079 116.237 66.6797 118.674 66.6642C120.058 66.672 121.24 67.1532 122.009 67.9527H126.242V65.7948H127.69ZM128.148 78.2608V79.2854H117.227V74.9231H118.674V78.2608H128.148ZM118.674 67.7509C117.007 67.7664 115.816 68.7444 115.816 70.1261C115.816 71.5077 117.007 72.4858 118.674 72.4858C120.268 72.4858 121.496 71.5077 121.496 70.1261C121.496 68.7444 120.268 67.7664 118.674 67.7509ZM122.669 68.9618C122.806 69.3188 122.889 69.7069 122.889 70.1261C122.889 70.5297 122.806 70.9101 122.669 71.2594H126.242V68.9618H122.669Z" fill="#FAF8F3"/>
<path d="M110.458 65.7948V69.1791H112.913V70.2037H110.458V73.6346H109.029V65.7948H110.458ZM105.712 66.7418V67.7354H99.9215V71.8027C103.192 71.8182 105.052 71.7173 107.233 71.3525L107.416 72.3461C105.125 72.7342 103.183 72.8118 99.7565 72.8118H98.4922V66.7418H105.712ZM110.458 74.3487V79.4096H100.178V74.3487H110.458ZM101.589 75.3422V78.416H109.029V75.3422H101.589Z" fill="#FAF8F3"/>
<path d="M87.102 68.0303C87.102 69.9088 88.7878 71.6319 91.1516 72.315L90.3637 73.2775C88.5587 72.7186 87.1386 71.5776 86.424 70.1416C85.7277 71.7639 84.2801 73.0446 82.3744 73.6656L81.6048 72.6876C84.0419 71.9114 85.6727 70.064 85.691 67.9372V66.509H87.102V68.0303ZM94.3949 65.7948V69.3965H96.8504V70.4211H94.3949V74.1934H92.9657V65.7948H94.3949ZM89.1726 74.5505C92.5259 74.5505 94.5415 75.4664 94.5415 77.0499C94.5415 78.6644 92.5259 79.5648 89.1726 79.5648C85.8193 79.5648 83.767 78.6644 83.767 77.0499C83.767 75.4664 85.8193 74.5505 89.1726 74.5505ZM89.1726 75.5285C86.7172 75.5285 85.1963 76.1029 85.2146 77.0499C85.1963 78.0279 86.7172 78.5868 89.1726 78.6023C91.6463 78.5868 93.1489 78.0279 93.1489 77.0499C93.1489 76.1029 91.6463 75.5285 89.1726 75.5285Z" fill="#FAF8F3"/>
<path d="M80.0655 65.7948V79.6269H78.6363V65.7948H80.0655ZM75.118 67.0833V71.989H69.0345V75.2491C71.7373 75.2491 74.1469 75.1482 77.0604 74.7523L77.207 75.7769C74.2018 76.1805 71.7281 76.2737 68.9245 76.2737H67.5685V70.9954H73.6704V68.0924H67.5319V67.0833H75.118Z" fill="#FAF8F3"/>
<path d="M63.986 65.7948V73.6346H62.5567V65.7948H63.986ZM63.986 74.4263V79.394H53.3947V74.4263H63.986ZM54.8056 75.4198V78.4005H62.575V75.4198H54.8056ZM56.3082 67.6888C56.2899 69.6448 58.049 71.368 60.4494 72.0821L59.7165 73.0136C57.8291 72.4625 56.3265 71.2982 55.5936 69.7846C54.8698 71.3991 53.3489 72.6721 51.3974 73.2775L50.6644 72.315C53.1381 71.5854 54.8423 69.7225 54.8423 67.6888V66.3382H56.3082V67.6888Z" fill="#FAF8F3"/>
<path d="M47.6435 65.7948V79.6269H46.2143V72.1287H43.0442V71.1041H46.2143V65.7948H47.6435ZM42.0547 67.0833V71.9114H36.2093V75.2646C39.0129 75.2646 41.0469 75.1947 43.429 74.8144L43.539 75.839C41.0835 76.2116 38.9763 76.2892 36.0261 76.3047H34.7801V70.9023H40.6621V68.0924H34.7251V67.0833H42.0547Z" fill="#FAF8F3"/>
<path d="M31.7702 71.9145V72.8925H16.9094V71.9145H31.7702ZM29.9928 69.7877V70.7812H18.8884V66.5897H29.8279V67.5677H20.336V69.7877H29.9928ZM29.8462 74.1344V77.3324H20.1711V78.7607H30.3409V79.7542H18.7418V76.4165H28.4352V75.0814H18.7052V74.1344H29.8462Z" fill="#FAF8F3"/>
<path d="M4.10459 66.866C6.50503 66.8815 8.20917 68.7444 8.22749 71.6785C8.20917 74.6126 6.50503 76.4755 4.10459 76.4755C1.68581 76.4755 0 74.6126 0 71.6785C0 68.7444 1.68581 66.8815 4.10459 66.866ZM4.10459 67.9527C2.49207 67.9682 1.35598 69.4275 1.35598 71.6785C1.35598 73.9295 2.49207 75.3888 4.10459 75.3888C5.73542 75.3888 6.83487 73.9295 6.83487 71.6785C6.83487 69.4275 5.73542 67.9682 4.10459 67.9527ZM12.3504 65.7948V71.3059H15.0807V72.3616H12.3504V79.5959H10.9211V65.7948H12.3504Z" fill="#FAF8F3"/>
<path d="M184.599 67.0666H185.875V69.3875C185.875 70.1506 185.75 70.903 185.5 71.6449C185.25 72.3761 184.9 73.0703 184.449 73.7273C184.011 74.3738 183.499 74.9461 182.911 75.4442C182.323 75.9423 181.691 76.3344 181.015 76.6206L180.115 75.5714C180.728 75.317 181.303 74.9726 181.841 74.5381C182.391 74.1036 182.873 73.6055 183.286 73.0438C183.699 72.4821 184.018 71.8886 184.243 71.2633C184.48 70.6381 184.599 70.0128 184.599 69.3875V67.0666ZM184.918 67.0666H186.175V69.3875C186.175 69.9916 186.288 70.5957 186.513 71.1997C186.751 71.7932 187.076 72.3549 187.489 72.8848C187.914 73.4041 188.396 73.8651 188.934 74.2678C189.484 74.6705 190.072 74.9885 190.698 75.2216L189.834 76.2708C189.146 75.9953 188.502 75.6244 187.902 75.158C187.301 74.6917 186.776 74.1566 186.326 73.5525C185.888 72.9378 185.544 72.2807 185.294 71.5813C185.043 70.8712 184.918 70.14 184.918 69.3875V67.0666ZM180.659 66.4784H190.135V67.5753H180.659V66.4784ZM192.443 65H194V79.3866H192.443V65Z" fill="#FAF8F3"/>
<path d="M176.381 65H177.938V73.1551H176.381V65ZM166.98 73.9817H177.938V79.1799H166.98V73.9817ZM176.418 75.0468H168.5V78.099H176.418V75.0468ZM168.444 65.5564H169.738V66.9553C169.738 67.8455 169.538 68.6828 169.138 69.467C168.738 70.2406 168.175 70.9136 167.449 71.4859C166.736 72.0582 165.898 72.498 164.935 72.8053L164.166 71.7561C164.803 71.5654 165.385 71.3057 165.911 70.9772C166.436 70.6487 166.886 70.2724 167.262 69.8485C167.649 69.4246 167.943 68.9689 168.143 68.4814C168.344 67.9833 168.444 67.4746 168.444 66.9553V65.5564ZM168.725 65.5564H170.02V66.9553C170.02 67.464 170.12 67.9515 170.32 68.4178C170.533 68.8841 170.827 69.3186 171.202 69.7213C171.59 70.1135 172.04 70.4632 172.553 70.7705C173.078 71.0779 173.654 71.3216 174.279 71.5018L173.51 72.5192C172.809 72.3178 172.165 72.037 171.577 71.6767C170.989 71.3163 170.483 70.8924 170.057 70.4049C169.632 69.9174 169.301 69.3822 169.063 68.7993C168.838 68.2165 168.725 67.6018 168.725 66.9553V65.5564Z" fill="#FAF8F3"/>
</svg>
