<svg width="391" height="60" viewBox="0 0 391 60" fill="none" xmlns="http://www.w3.org/2000/svg">
<path d="M165.436 7.79199V54H160.188V7.79199H165.436Z" fill="#3D5C3A"/>
<path d="M124.706 46.192C125.431 47.3013 126.37 48.2613 127.522 49.072C128.717 49.84 130.253 50.224 132.13 50.224C135.074 50.224 137.229 49.328 138.594 47.536C140.002 45.744 140.706 42.9493 140.706 39.152V7.79199H145.954V40.304C145.954 44.784 144.823 48.3253 142.562 50.928C140.343 53.5307 137.101 54.832 132.834 54.832C129.89 54.832 127.437 54.3413 125.474 53.36C123.554 52.3787 122.039 50.9493 120.93 49.072L124.706 46.192Z" fill="#3D5C3A"/>
<path d="M85.772 54L70.22 14.576H70.156L70.348 20.464V54H65.1V7.79199H72.652L86.156 42.096L88.204 48.368L90.252 42.096L103.756 7.79199H111.308V54H106.06V20.464L106.252 14.576H106.188L90.636 54H85.772Z" fill="#3D5C3A"/>
<path d="M50.398 7.79199V54H45.15V7.79199H50.398Z" fill="#3D5C3A"/>
<path d="M27.456 17.328C26.4747 15.4933 24.9813 14.0853 22.976 13.104C21.0133 12.08 18.9013 11.568 16.64 11.568C13.696 11.568 11.264 12.1867 9.344 13.424C7.424 14.6187 6.464 16.4107 6.464 18.8C6.464 19.9947 6.656 21.0613 7.04 22C7.424 22.896 8.04267 23.728 8.896 24.496C9.74933 25.2213 10.8587 25.8827 12.224 26.48C13.5893 27.0347 15.232 27.568 17.152 28.08C19.4133 28.6773 21.4827 29.3813 23.36 30.192C25.28 30.96 26.9227 31.8987 28.288 33.008C29.6533 34.0747 30.72 35.3547 31.488 36.848C32.256 38.2987 32.64 39.984 32.64 41.904C32.64 44.1653 32.2133 46.1067 31.36 47.728C30.5067 49.3493 29.3333 50.6933 27.84 51.76C26.3467 52.8267 24.5547 53.5947 22.464 54.064C20.3733 54.576 18.0907 54.832 15.616 54.832C13.952 54.832 12.3307 54.6187 10.752 54.192C9.216 53.808 7.744 53.232 6.336 52.464C4.97067 51.696 3.73333 50.7573 2.624 49.648C1.55733 48.496 0.682667 47.1947 0 45.744L4.352 43.312C4.77867 44.2507 5.376 45.1467 6.144 46C6.912 46.8107 7.808 47.536 8.832 48.176C9.856 48.816 10.9653 49.328 12.16 49.712C13.3547 50.0533 14.6133 50.224 15.936 50.224C17.6 50.224 19.1147 50.0747 20.48 49.776C21.888 49.4773 23.0827 49.008 24.064 48.368C25.088 47.728 25.8773 46.9173 26.432 45.936C27.0293 44.9547 27.328 43.7813 27.328 42.416C27.328 41.008 27.072 39.8133 26.56 38.832C26.048 37.808 25.2373 36.912 24.128 36.144C23.0187 35.3333 21.6107 34.608 19.904 33.968C18.1973 33.328 16.128 32.688 13.696 32.048C9.856 31.024 6.80533 29.488 4.544 27.44C2.28267 25.392 1.152 22.704 1.152 19.376C1.152 17.4133 1.51467 15.664 2.24 14.128C3.008 12.592 4.07467 11.2907 5.44 10.224C6.848 9.15732 8.53333 8.34666 10.496 7.79199C12.4587 7.23732 14.6347 6.95999 17.024 6.95999C20.3093 6.95999 23.232 7.68532 25.792 9.13599C28.352 10.544 30.3787 12.464 31.872 14.896L27.456 17.328Z" fill="#3D5C3A"/>
<path d="M188.44 60L187.44 60L187.44 4.37114e-08L188.44 0L188.44 60Z" fill="#747373"/>
<path d="M232.829 5.33599C233.597 5.43199 234.525 5.49599 235.581 5.49599H243.293C243.805 5.49599 244.381 5.39999 244.893 5.30399C245.405 5.20799 245.949 5.17599 246.397 5.17599C246.653 5.17599 246.909 5.23999 247.069 5.46399C247.485 6.00799 247.741 6.80799 247.837 7.44799C247.869 7.67199 247.741 7.79999 247.485 7.76799C246.621 7.63999 245.629 7.57599 244.509 7.57599H242.013C241.725 8.85599 241.309 10.104 240.829 11.32C243.197 13.88 245.757 17.368 247.517 20.28C247.741 20.632 247.485 20.888 247.325 21.08C247.069 21.336 246.397 21.656 246.077 21.752C245.725 21.912 245.533 21.784 245.309 21.368C243.901 18.936 241.917 16.056 239.869 13.56C238.269 16.824 236.093 19.8 233.821 21.944C233.437 22.296 233.213 22.36 232.797 22.392C232.413 22.328 232.125 22.232 231.805 22.072C231.549 21.976 231.549 21.592 231.773 21.368C235.069 17.976 238.365 12.504 239.517 7.57599H236.669C236.157 7.57599 235.677 7.70399 235.165 7.79999C234.653 7.86399 234.205 7.89599 233.821 7.89599C233.565 7.89599 233.373 7.83199 233.213 7.60799C232.861 7.12799 232.605 6.32799 232.477 5.62399C232.445 5.43199 232.573 5.30399 232.829 5.33599ZM251.997 4.53599C251.997 3.89599 251.901 3.41599 251.453 3.06399C250.813 2.55199 250.205 2.19999 249.469 1.84799C249.309 1.78399 249.213 1.68799 249.245 1.52799C249.341 1.17599 249.501 0.823994 249.725 0.535994C249.789 0.439994 249.981 0.407994 250.141 0.439994C251.549 0.791993 253.085 1.33599 254.333 2.07199C254.589 2.23199 254.653 2.42399 254.621 2.71199C254.557 3.63999 254.397 4.72799 254.397 5.81599V28.184C254.397 28.504 254.333 28.728 254.077 28.888C253.629 29.208 253.053 29.496 252.509 29.496C252.125 29.496 251.997 29.368 251.997 28.984V4.53599Z" fill="#3D5C3A"/>
<path d="M208.624 29.272L208.272 22.104C208.24 21.656 208.272 21.24 207.952 21.016C207.728 20.856 207.472 20.76 207.184 20.696C206.992 20.664 206.864 20.568 206.864 20.44C206.832 20.088 206.832 19.64 206.928 19.32C206.96 19.224 207.152 19.16 207.312 19.16C208.144 19.128 209.328 19.16 210.384 19.416H220.144C220.592 19.416 220.912 19.288 221.2 19.064C221.424 18.904 221.712 18.904 222.064 19.064C222.544 19.288 223.12 19.544 223.568 19.928C223.76 20.12 223.76 20.408 223.76 20.696C223.696 22.328 223.344 25.048 222.992 26.936C223.248 26.968 223.472 27.128 223.6 27.352C223.824 27.768 223.952 28.376 223.952 28.92C223.952 29.144 223.824 29.24 223.568 29.24C222.608 29.208 221.712 29.176 220.592 29.176H210.832C210.768 29.4 210.64 29.56 210.384 29.656C210.032 29.784 209.616 29.88 209.232 29.848C208.816 29.816 208.624 29.688 208.624 29.272ZM212.336 4.63199C211.824 5.91199 211.184 7.15999 210.448 8.34399C212.688 10.36 214.992 12.44 216.976 14.68C217.232 14.968 217.008 15.288 216.848 15.48C216.624 15.768 216.112 16.12 215.792 16.28C215.472 16.44 215.248 16.312 214.96 15.96C213.52 14.296 211.344 11.992 209.328 10.104C207.696 12.44 205.68 14.616 203.472 16.664C203.056 17.048 202.864 17.08 202.448 17.112C202.064 17.048 201.776 16.952 201.456 16.792C201.2 16.696 201.2 16.312 201.424 16.088C205.264 12.216 207.728 8.79199 209.328 5.30399C209.552 4.79199 209.456 4.50399 209.04 4.21599C208.656 3.92799 208.144 3.60799 207.696 3.44799C207.536 3.38399 207.472 3.25599 207.472 3.12799C207.472 2.80799 207.664 2.45599 207.856 2.16799C207.92 2.07199 208.08 2.03999 208.272 2.07199C209.424 2.26399 210.8 2.71199 211.952 3.38399C212.336 3.60799 212.496 4.24799 212.336 4.63199ZM219.92 27.096C220.304 27.096 220.624 27.096 220.976 27.064V21.496H210.736L210.864 27.096H219.92ZM221.008 4.53599C221.008 3.89599 220.912 3.41599 220.464 3.06399C219.824 2.55199 219.216 2.19999 218.48 1.84799C218.32 1.78399 218.224 1.68799 218.256 1.52799C218.352 1.17599 218.512 0.823994 218.736 0.535994C218.8 0.439994 218.992 0.407994 219.152 0.439994C220.56 0.791993 222.096 1.33599 223.344 2.07199C223.6 2.23199 223.664 2.42399 223.632 2.71199C223.568 3.63999 223.408 4.72799 223.408 5.81599V16.184C223.408 16.504 223.344 16.728 223.088 16.888C222.64 17.208 222.064 17.496 221.52 17.496C221.136 17.496 221.008 17.368 221.008 16.984V4.53599Z" fill="#3D5C3A"/>
<path d="M390.628 53.0469V54.3164H374.729V53.0469H381.838V48.7891H383.342V53.0469H390.628ZM383.381 41.7383C383.381 44.6484 386.819 47.1875 389.846 47.7148L389.163 48.9844C386.516 48.4473 383.723 46.6504 382.6 44.1406C381.458 46.6406 378.684 48.4473 376.038 48.9844L375.354 47.7148C378.381 47.1875 381.78 44.6484 381.78 41.7383V40.4102H383.381V41.7383Z" fill="#FAF8F3"/>
<path d="M370.174 40.3516V41.875C370.174 43.5254 370.174 45.3125 369.686 47.8125H372.264V49.082H365.096V56.6211H363.553V49.082H356.444V47.8125H368.124C368.651 45.3125 368.651 43.4863 368.651 41.875V41.6211H358.436V40.3516H370.174Z" fill="#FAF8F3"/>
<path d="M352.553 39.2383V52.0703H351.01V47.3828H346.518C345.717 48.4082 344.428 49.0234 342.944 49.0234C340.346 49.0234 338.432 47.2266 338.432 44.6875C338.432 42.1484 340.346 40.3516 342.944 40.332C344.419 40.3418 345.678 40.9473 346.499 41.9531H351.01V39.2383H352.553ZM353.042 54.9219V56.2109H341.401V50.7227H342.944V54.9219H353.042ZM342.944 41.6992C341.167 41.7188 339.897 42.9492 339.897 44.6875C339.897 46.4258 341.167 47.6562 342.944 47.6562C344.643 47.6562 345.952 46.4258 345.952 44.6875C345.952 42.9492 344.643 41.7188 342.944 41.6992ZM347.202 43.2227C347.348 43.6719 347.436 44.1602 347.436 44.6875C347.436 45.1953 347.348 45.6738 347.202 46.1133H351.01V43.2227H347.202Z" fill="#FAF8F3"/>
<path d="M333.448 39.2188V43.4766H336.065V44.7656H333.448V49.082H331.924V39.2188H333.448ZM328.389 40.4102V41.6602H322.217V46.7773C325.704 46.7969 327.686 46.6699 330.01 46.2109L330.206 47.4609C327.764 47.9492 325.694 48.0469 322.042 48.0469H320.694V40.4102H328.389ZM333.448 49.9805V56.3477H322.491V49.9805H333.448ZM323.995 51.2305V55.0977H331.924V51.2305H323.995Z" fill="#FAF8F3"/>
<path d="M307.389 42.0312C307.389 44.3945 309.186 46.5625 311.706 47.4219L310.866 48.6328C308.942 47.9297 307.428 46.4941 306.667 44.6875C305.924 46.7285 304.381 48.3398 302.35 49.1211L301.53 47.8906C304.128 46.9141 305.866 44.5898 305.885 41.9141V40.1172H307.389V42.0312ZM315.163 39.2188V43.75H317.78V45.0391H315.163V49.7852H313.639V39.2188H315.163ZM309.596 50.2344C313.17 50.2344 315.319 51.3867 315.319 53.3789C315.319 55.4102 313.17 56.543 309.596 56.543C306.022 56.543 303.835 55.4102 303.835 53.3789C303.835 51.3867 306.022 50.2344 309.596 50.2344ZM309.596 51.4648C306.979 51.4648 305.358 52.1875 305.378 53.3789C305.358 54.6094 306.979 55.3125 309.596 55.332C312.233 55.3125 313.835 54.6094 313.835 53.3789C313.835 52.1875 312.233 51.4648 309.596 51.4648Z" fill="#FAF8F3"/>
<path d="M297.639 39.2188V56.6211H296.116V39.2188H297.639ZM292.366 40.8398V47.0117H285.881V51.1133C288.762 51.1133 291.331 50.9863 294.436 50.4883L294.592 51.7773C291.389 52.2852 288.753 52.4023 285.764 52.4023H284.319V45.7617H290.823V42.1094H284.28V40.8398H292.366Z" fill="#FAF8F3"/>
<path d="M279.354 39.2383V49.1016H277.831V39.2383H279.354ZM279.354 50.0977V56.3477H268.065V50.0977H279.354ZM269.569 51.3477V55.0977H277.85V51.3477H269.569ZM271.17 41.6211C271.151 44.082 273.026 46.25 275.585 47.1484L274.803 48.3203C272.792 47.627 271.19 46.1621 270.409 44.2578C269.637 46.2891 268.016 47.8906 265.936 48.6523L265.155 47.4414C267.792 46.5234 269.608 44.1797 269.608 41.6211V39.9219H271.17V41.6211Z" fill="#FAF8F3"/>
<path d="M255.088 39.2188V56.6211H253.565V47.1875H250.186V45.8984H253.565V39.2188H255.088ZM249.131 40.8398V46.9141H242.901V51.1328C245.889 51.1328 248.057 51.0449 250.596 50.5664L250.713 51.8555C248.096 52.3242 245.85 52.4219 242.706 52.4414H241.378V45.6445H247.647V42.1094H241.319V40.8398H249.131Z" fill="#FAF8F3"/>
<path d="M238.268 46.5234V47.7539H222.428V46.5234H238.268ZM236.374 43.8477V45.0977H224.538V39.8242H236.198V41.0547H226.081V43.8477H236.374ZM236.217 49.3164V53.3398H225.905V55.1367H236.745V56.3867H224.381V52.1875H234.713V50.5078H224.342V49.3164H236.217Z" fill="#FAF8F3"/>
<path d="M208.792 40.5664C211.35 40.5859 213.167 42.9297 213.186 46.6211C213.167 50.3125 211.35 52.6562 208.792 52.6562C206.213 52.6562 204.417 50.3125 204.417 46.6211C204.417 42.9297 206.213 40.5859 208.792 40.5664ZM208.792 41.9336C207.073 41.9531 205.862 43.7891 205.862 46.6211C205.862 49.4531 207.073 51.2891 208.792 51.2891C210.53 51.2891 211.702 49.4531 211.702 46.6211C211.702 43.7891 210.53 41.9531 208.792 41.9336ZM217.581 39.2188V46.1523H220.491V47.4805H217.581V56.582H216.057V39.2188H217.581Z" fill="#FAF8F3"/>
</svg>
